<svg width="835" height="608" viewBox="0 0 835 608" fill="none" xmlns="http://www.w3.org/2000/svg">
<path d="M704.408 0H204.717C191.664 0 180.108 8.441 176.138 20.876L85.877 303.573L1.44296 568.021C-4.73657 587.375 9.70476 607.145 30.0216 607.145H590.566C644.099 607.145 691.787 573.319 709.483 522.796L733.64 453.823C739.349 437.524 738.643 419.663 731.664 403.865C715.225 366.648 668.719 353.967 635.663 377.688L496.837 477.311L484.687 301.613C487.651 252.787 530.15 215.925 578.905 219.892L735.352 232.621C776.311 235.954 814.301 211.041 827.569 172.148C856.372 87.72 793.615 0 704.408 0Z" fill="#F3C6C6"/>
<path d="M568.873 341.158C589.026 341.158 605.362 324.103 605.362 303.064C605.362 282.025 589.026 264.97 568.873 264.97C548.721 264.97 532.385 282.025 532.385 303.064C532.385 324.103 548.721 341.158 568.873 341.158Z" fill="#F3C6C6"/>
</svg>
